# xmcd
#
# Track frame offsets: 
#        150
#        10015
#        27680
#        41955
#        62170
#        77655
#        97897
#        119004
#        139127
#        159610
#
# Disc length: 2354 seconds
#
# Revision: 5
# Processed by: cddbd v1.5.2PL0 Copyright (c) Steve Scherf et al.
# Submitted via: ExactAudioCopyFreeDBPlugin 1.0
#
DISCID=8609300a
DTITLE=Bettye LaVette - I've Got My Own Hell to Raise
DYEAR=2005
DGENRE=Soul
TTITLE0=I Do Not Want What I Haven't Got
TTITLE1=Joy
TTITLE2=Down to Zero
TTITLE3=The High Road
TTITLE4=On the Surface
TTITLE5=Just Say So
TTITLE6=Little Sparrow
TTITLE7=How Am I Different
TTITLE8=Only Time Will Tell Me
TTITLE9=Sleep to Dream
EXTD=
EXTT0=
EXTT1=
EXTT2=
EXTT3=
EXTT4=
EXTT5=
EXTT6=
EXTT7=
EXTT8=
EXTT9=
PLAYORDER=
